<svg width="10" height="10" viewBox="0 0 10 10" fill="none" xmlns="http://www.w3.org/2000/svg">
<path d="M5 0C5.8871 0 6.73387 0.241935 7.5 0.685484C8.26613 1.12903 8.87097 1.73387 9.31452 2.5C9.75806 3.26613 10 4.1129 10 5C10 5.90726 9.75806 6.73387 9.31452 7.5C8.87097 8.26613 8.26613 8.89113 7.5 9.33468C6.73387 9.77823 5.8871 10 5 10C4.09274 10 3.26613 9.77823 2.5 9.33468C1.73387 8.89113 1.10887 8.26613 0.665323 7.5C0.221774 6.73387 0 5.90726 0 5C0 4.1129 0.221774 3.26613 0.665323 2.5C1.10887 1.73387 1.73387 1.12903 2.5 0.685484C3.26613 0.241935 4.09274 0 5 0ZM5 2.21774C4.75806 2.21774 4.55645 2.31855 4.39516 2.47984C4.23387 2.64113 4.15323 2.84274 4.15323 3.06452C4.15323 3.30645 4.23387 3.50806 4.39516 3.66935C4.55645 3.83065 4.75806 3.91129 5 3.91129C5.22177 3.91129 5.42339 3.83065 5.58468 3.66935C5.74597 3.50806 5.84677 3.30645 5.84677 3.06452C5.84677 2.84274 5.74597 2.64113 5.58468 2.47984C5.42339 2.31855 5.22177 2.21774 5 2.21774ZM6.12903 7.33871V6.85484C6.12903 6.79435 6.08871 6.73387 6.04839 6.69355C6.00806 6.65323 5.94758 6.6129 5.8871 6.6129H5.64516V4.59677C5.64516 4.53629 5.60484 4.47581 5.56452 4.43548C5.52419 4.39516 5.46371 4.35484 5.40323 4.35484H4.1129C4.03226 4.35484 3.97177 4.39516 3.93145 4.43548C3.89113 4.47581 3.87097 4.53629 3.87097 4.59677V5.08065C3.87097 5.16129 3.89113 5.22177 3.93145 5.2621C3.97177 5.30242 4.03226 5.32258 4.1129 5.32258H4.35484V6.6129H4.1129C4.03226 6.6129 3.97177 6.65323 3.93145 6.69355C3.89113 6.73387 3.87097 6.79435 3.87097 6.85484V7.33871C3.87097 7.41935 3.89113 7.47984 3.93145 7.52016C3.97177 7.56048 4.03226 7.58065 4.1129 7.58065H5.8871C5.94758 7.58065 6.00806 7.56048 6.04839 7.52016C6.08871 7.47984 6.12903 7.41935 6.12903 7.33871Z" fill="#EB5757"/>
</svg>
