<svg width="14" height="11" viewBox="0 0 14 11" fill="none" xmlns="http://www.w3.org/2000/svg">
<path d="M6.57989 3.54062C5.08989 3.54062 3.88989 4.74062 3.88989 6.23062C3.88989 6.47062 3.92989 6.71062 3.98989 6.93062L7.27989 3.64062C7.05989 3.59062 6.82989 3.54062 6.57989 3.54062Z" fill="black"/>
<path d="M6.57997 8.93064C8.06997 8.93064 9.26997 7.73064 9.26997 6.24064C9.26997 5.38064 8.85997 4.62064 8.21997 4.12064L4.46997 7.88064C4.95997 8.51064 5.71997 8.93064 6.57997 8.93064Z" fill="black"/>
<path d="M0.172068 6.42405C0.0694874 6.73522 0.312573 7.04062 0.640217 7.04062C0.870299 7.04062 1.06976 6.88554 1.14443 6.66791C1.95016 4.31979 4.16684 2.63062 6.79 2.63062C7.25 2.63062 7.7 2.70062 8.13 2.80062L8.94 1.99062C8.26 1.77062 7.54 1.63062 6.78 1.63062C3.70343 1.63062 1.08752 3.6471 0.172068 6.42405Z" fill="black"/>
<path d="M9.94 2.41061L9.19 3.16061C10.7026 3.82876 11.888 5.09972 12.4345 6.66982C12.5099 6.88651 12.7089 7.04061 12.9384 7.04061C13.2665 7.04061 13.5098 6.7345 13.4062 6.42313C12.8241 4.67331 11.5629 3.24449 9.94 2.41061Z" fill="black"/>
<path d="M10.9904 0.35356L1.84793 9.496C1.65267 9.69126 1.65267 10.0078 1.84793 10.2031C2.0432 10.3984 2.35977 10.3984 2.55504 10.2031L11.6975 1.06066C11.8927 0.865399 11.8927 0.548819 11.6975 0.353559C11.5022 0.158299 11.1856 0.1583 10.9904 0.35356Z" fill="black"/>
</svg>
