<svg width="16" height="16" viewBox="0 0 16 16" fill="none" xmlns="http://www.w3.org/2000/svg">
<g clip-path="url(#clip0)">
<path d="M15.996 16V15.9994H16V10.1313C16 7.26068 15.382 5.04935 12.026 5.04935C10.4127 5.04935 9.33003 5.93468 8.88803 6.77401H8.84136V5.31735H5.65936V15.9994H8.9727V10.71C8.9727 9.31735 9.2367 7.97068 10.9614 7.97068C12.6607 7.97068 12.686 9.56001 12.686 10.7993V16H15.996Z" fill="white"/>
<path d="M0.263977 5.31799H3.58131V16H0.263977V5.31799Z" fill="white"/>
<path d="M1.92133 0C0.860667 0 0 0.860667 0 1.92133C0 2.982 0.860667 3.86067 1.92133 3.86067C2.982 3.86067 3.84267 2.982 3.84267 1.92133C3.842 0.860667 2.98133 0 1.92133 0V0Z" fill="white"/>
</g>
<defs>
<clipPath id="clip0">
<rect width="16" height="16" fill="white"/>
</clipPath>
</defs>
</svg>
