<svg width="51" height="46" viewBox="0 0 51 46" fill="none" xmlns="http://www.w3.org/2000/svg">
<path d="M23.3287 46C39.2852 46 46.6574 40.474 46.6574 40.474H0C0 40.5238 7.37228 46 23.3287 46ZM50.1416 22.4026H41.5069H41.4564C41.5069 21.8052 41.5069 21.2576 41.5069 20.6602H18.1277V23.2489H19.8446C20.299 23.2489 20.703 23.6472 20.703 24.0952V30.5671C20.703 31.0152 20.299 31.4134 19.8446 31.4134H14.6941C14.2396 31.4134 13.8356 31.0152 13.8356 30.5671V24.0952C13.8356 23.6472 14.2396 23.2489 14.6941 23.2489H16.4109V20.6602H5.20099C5.20099 28.2273 7.37228 34.7489 11.8663 38.7316H34.7911C36.4069 37.2879 37.7703 35.4957 38.7297 33.5541H39.7396C46.1525 33.5541 51 29.1234 51 23.1991C51 22.8009 50.596 22.4026 50.1416 22.4026ZM39.7396 31.8615H39.4871C40.4465 29.3723 41.0525 26.7338 41.305 24.0952C41.3554 24.0952 41.4059 24.145 41.4564 24.145H49.1822C48.7782 28.6753 44.9406 31.8615 39.7396 31.8615ZM12.0178 13.0433C12.0178 14.0887 12.4218 15.0844 13.1792 15.8312C13.5327 16.1797 14.0376 16.1797 14.3911 15.8312C14.7446 15.4827 14.7446 14.9351 14.3911 14.6364C13.5327 13.7403 13.5327 12.3463 14.3911 11.4502C15.9564 9.90693 15.9564 7.41775 14.3911 5.82468C14.0376 5.47619 13.5327 5.47619 13.1792 5.82468C12.8257 6.17316 12.8257 6.72078 13.1792 7.01948C14.0376 7.91559 14.0376 9.30952 13.1792 10.2056C12.4218 11.0022 12.0178 11.9978 12.0178 13.0433ZM31.004 13.0433C31.004 14.0887 31.4079 15.0844 32.1653 15.8312C32.5188 16.1797 33.0238 16.1797 33.3772 15.8312C33.7307 15.4827 33.7307 14.9351 33.3772 14.6364C32.5188 13.7403 32.5188 12.3463 33.3772 11.4502C34.9426 9.90693 34.9426 7.41775 33.3772 5.82468C33.0238 5.47619 32.5188 5.47619 32.1653 5.82468C31.8119 6.17316 31.8119 6.72078 32.1653 7.01948C33.0238 7.91559 33.0238 9.30952 32.1653 10.2056C31.4584 11.0022 31.004 11.9978 31.004 13.0433ZM21.1574 9.70779C21.1574 11.0519 21.6624 12.3463 22.6218 13.2922C22.9752 13.6407 23.4802 13.6407 23.8337 13.2922C24.1871 12.9437 24.1871 12.3961 23.8337 12.0974C22.5208 10.803 22.5208 8.71212 23.8337 7.41775C25.803 5.42641 25.803 2.29004 23.8337 0.298702C23.4802 -0.049783 22.9752 -0.049783 22.6218 0.298702C22.2683 0.647187 22.2683 1.19481 22.6218 1.49351C23.9347 2.78788 23.9347 4.87879 22.6218 6.17316C21.6624 7.11905 21.1574 8.41342 21.1574 9.70779ZM15.5525 24.9913H18.9861V29.7208H15.5525V24.9913Z" fill="white"/>
</svg>
