<svg width="16" height="16" viewBox="0 0 16 16" fill="none" xmlns="http://www.w3.org/2000/svg">
<path d="M8.1616 16C12.8714 16 16 12.7595 16 8.1856C16 7.66187 15.9445 7.2576 15.8672 6.8544H8.16269V9.60427H12.7952C12.6059 10.7723 11.3925 13.0528 8.16269 13.0528C5.38013 13.0528 3.10794 10.7936 3.10794 8C3.10794 5.2064 5.37904 2.94613 8.16269 2.94613C9.75474 2.94613 10.8125 3.61173 11.4143 4.1792L13.6299 2.09493C12.2032 0.786134 10.3663 0 8.1616 0C3.65204 0 0 3.57973 0 8C0 12.4203 3.65204 16 8.1616 16Z" fill="white"/>
</svg>
