<svg width="265" height="18" viewBox="0 0 265 18" fill="none" xmlns="http://www.w3.org/2000/svg">
<path d="M2.9425 12.891H8.443V15H0.387V1.263H2.9425V12.891ZM13.7449 5.101C14.3592 5.101 14.9229 5.19917 15.4359 5.3955C15.9552 5.59183 16.4017 5.88 16.7754 6.26C17.1491 6.63367 17.4404 7.096 17.6494 7.647C17.8584 8.19167 17.9629 8.8155 17.9629 9.5185C17.9629 9.69583 17.9534 9.84467 17.9344 9.965C17.9217 10.079 17.8932 10.1708 17.8489 10.2405C17.8109 10.3038 17.7571 10.3513 17.6874 10.383C17.6177 10.4083 17.5291 10.421 17.4214 10.421H11.3984C11.4681 11.4217 11.7372 12.1563 12.2059 12.625C12.6746 13.0937 13.2952 13.328 14.0679 13.328C14.4479 13.328 14.7741 13.2837 15.0464 13.195C15.3251 13.1063 15.5657 13.0082 15.7684 12.9005C15.9774 12.7928 16.1579 12.6947 16.3099 12.606C16.4682 12.5173 16.6202 12.473 16.7659 12.473C16.8609 12.473 16.9432 12.492 17.0129 12.53C17.0826 12.568 17.1427 12.6218 17.1934 12.6915L17.8774 13.5465C17.6177 13.8505 17.3264 14.107 17.0034 14.316C16.6804 14.5187 16.3416 14.6833 15.9869 14.81C15.6386 14.9303 15.2807 15.0158 14.9134 15.0665C14.5524 15.1172 14.2009 15.1425 13.8589 15.1425C13.1812 15.1425 12.5511 15.0317 11.9684 14.81C11.3857 14.582 10.8791 14.2495 10.4484 13.8125C10.0177 13.3692 9.67889 12.8245 9.43189 12.1785C9.18489 11.5262 9.06139 10.7725 9.06139 9.9175C9.06139 9.2525 9.16906 8.62867 9.38439 8.046C9.59972 7.457 9.90689 6.94717 10.3059 6.5165C10.7112 6.0795 11.2021 5.73433 11.7784 5.481C12.3611 5.22767 13.0166 5.101 13.7449 5.101ZM13.7924 6.7825C13.1084 6.7825 12.5732 6.97567 12.1869 7.362C11.8006 7.74833 11.5536 8.29617 11.4459 9.0055H15.8539C15.8539 8.7015 15.8127 8.4165 15.7304 8.1505C15.6481 7.87817 15.5214 7.64067 15.3504 7.438C15.1794 7.23533 14.9641 7.077 14.7044 6.963C14.4447 6.84267 14.1407 6.7825 13.7924 6.7825ZM27.5043 15H26.4498C26.2281 15 26.054 14.9683 25.9273 14.905C25.8006 14.8353 25.7056 14.6992 25.6423 14.4965L25.4333 13.803C25.1863 14.0247 24.9425 14.221 24.7018 14.392C24.4675 14.5567 24.2236 14.696 23.9703 14.81C23.717 14.924 23.4478 15.0095 23.1628 15.0665C22.8778 15.1235 22.5611 15.152 22.2128 15.152C21.8011 15.152 21.4211 15.0982 21.0728 14.9905C20.7245 14.8765 20.4236 14.7087 20.1703 14.487C19.9233 14.2653 19.7301 13.9898 19.5908 13.6605C19.4515 13.3312 19.3818 12.948 19.3818 12.511C19.3818 12.1437 19.4768 11.7827 19.6668 11.428C19.8631 11.067 20.1861 10.744 20.6358 10.459C21.0855 10.1677 21.684 9.927 22.4313 9.737C23.1786 9.547 24.1065 9.43933 25.2148 9.414V8.844C25.2148 8.19167 25.0755 7.71033 24.7968 7.4C24.5245 7.08333 24.1255 6.925 23.5998 6.925C23.2198 6.925 22.9031 6.96933 22.6498 7.058C22.3965 7.14667 22.1748 7.248 21.9848 7.362C21.8011 7.46967 21.6301 7.56783 21.4718 7.6565C21.3135 7.74517 21.1393 7.7895 20.9493 7.7895C20.791 7.7895 20.6548 7.74833 20.5408 7.666C20.4268 7.58367 20.335 7.48233 20.2653 7.362L19.8378 6.6115C20.9588 5.5855 22.311 5.0725 23.8943 5.0725C24.4643 5.0725 24.971 5.1675 25.4143 5.3575C25.864 5.54117 26.244 5.80083 26.5543 6.1365C26.8646 6.46583 27.099 6.86167 27.2573 7.324C27.422 7.78633 27.5043 8.293 27.5043 8.844V15ZM22.9443 13.537C23.185 13.537 23.4066 13.5148 23.6093 13.4705C23.812 13.4262 24.002 13.3597 24.1793 13.271C24.363 13.1823 24.5371 13.0747 24.7018 12.948C24.8728 12.815 25.0438 12.6598 25.2148 12.4825V10.839C24.5308 10.8707 23.9576 10.9308 23.4953 11.0195C23.0393 11.1018 22.672 11.2095 22.3933 11.3425C22.1146 11.4755 21.9151 11.6307 21.7948 11.808C21.6808 11.9853 21.6238 12.1785 21.6238 12.3875C21.6238 12.7992 21.7441 13.0937 21.9848 13.271C22.2318 13.4483 22.5516 13.537 22.9443 13.537ZM29.8116 15V5.253H31.1891C31.4298 5.253 31.5976 5.29733 31.6926 5.386C31.7876 5.47467 31.851 5.62667 31.8826 5.842L32.0251 7.02C32.3735 6.41833 32.782 5.94333 33.2506 5.595C33.7193 5.24667 34.245 5.0725 34.8276 5.0725C35.309 5.0725 35.708 5.18333 36.0246 5.405L35.7206 7.1625C35.7016 7.2765 35.6605 7.35883 35.5971 7.4095C35.5338 7.45383 35.4483 7.476 35.3406 7.476C35.2456 7.476 35.1158 7.45383 34.9511 7.4095C34.7865 7.36517 34.568 7.343 34.2956 7.343C33.808 7.343 33.39 7.47917 33.0416 7.7515C32.6933 8.0175 32.3988 8.41017 32.1581 8.9295V15H29.8116ZM37.5675 15V5.253H39.002C39.306 5.253 39.5055 5.3955 39.6005 5.6805L39.762 6.45C39.9583 6.24733 40.1641 6.06367 40.3795 5.899C40.6011 5.73433 40.8323 5.59183 41.073 5.4715C41.32 5.35117 41.5828 5.25933 41.8615 5.196C42.1401 5.13267 42.4441 5.101 42.7735 5.101C43.3055 5.101 43.7773 5.19283 44.189 5.3765C44.6006 5.55383 44.9426 5.80717 45.215 6.1365C45.4936 6.4595 45.7026 6.849 45.842 7.305C45.9876 7.75467 46.0605 8.25183 46.0605 8.7965V15H43.714V8.7965C43.714 8.20117 43.5746 7.742 43.296 7.419C43.0236 7.08967 42.612 6.925 42.061 6.925C41.6556 6.925 41.2756 7.01683 40.921 7.2005C40.5663 7.38417 40.2306 7.63433 39.914 7.951V15H37.5675ZM59.6781 15H58.6236C58.402 15 58.2278 14.9683 58.1011 14.905C57.9745 14.8353 57.8795 14.6992 57.8161 14.4965L57.6071 13.803C57.3601 14.0247 57.1163 14.221 56.8756 14.392C56.6413 14.5567 56.3975 14.696 56.1441 14.81C55.8908 14.924 55.6216 15.0095 55.3366 15.0665C55.0516 15.1235 54.735 15.152 54.3866 15.152C53.975 15.152 53.595 15.0982 53.2466 14.9905C52.8983 14.8765 52.5975 14.7087 52.3441 14.487C52.0971 14.2653 51.904 13.9898 51.7646 13.6605C51.6253 13.3312 51.5556 12.948 51.5556 12.511C51.5556 12.1437 51.6506 11.7827 51.8406 11.428C52.037 11.067 52.36 10.744 52.8096 10.459C53.2593 10.1677 53.8578 9.927 54.6051 9.737C55.3525 9.547 56.2803 9.43933 57.3886 9.414V8.844C57.3886 8.19167 57.2493 7.71033 56.9706 7.4C56.6983 7.08333 56.2993 6.925 55.7736 6.925C55.3936 6.925 55.077 6.96933 54.8236 7.058C54.5703 7.14667 54.3486 7.248 54.1586 7.362C53.975 7.46967 53.804 7.56783 53.6456 7.6565C53.4873 7.74517 53.3131 7.7895 53.1231 7.7895C52.9648 7.7895 52.8286 7.74833 52.7146 7.666C52.6006 7.58367 52.5088 7.48233 52.4391 7.362L52.0116 6.6115C53.1326 5.5855 54.4848 5.0725 56.0681 5.0725C56.6381 5.0725 57.1448 5.1675 57.5881 5.3575C58.0378 5.54117 58.4178 5.80083 58.7281 6.1365C59.0385 6.46583 59.2728 6.86167 59.4311 7.324C59.5958 7.78633 59.6781 8.293 59.6781 8.844V15ZM55.1181 13.537C55.3588 13.537 55.5805 13.5148 55.7831 13.4705C55.9858 13.4262 56.1758 13.3597 56.3531 13.271C56.5368 13.1823 56.711 13.0747 56.8756 12.948C57.0466 12.815 57.2176 12.6598 57.3886 12.4825V10.839C56.7046 10.8707 56.1315 10.9308 55.6691 11.0195C55.2131 11.1018 54.8458 11.2095 54.5671 11.3425C54.2885 11.4755 54.089 11.6307 53.9686 11.808C53.8546 11.9853 53.7976 12.1785 53.7976 12.3875C53.7976 12.7992 53.918 13.0937 54.1586 13.271C54.4056 13.4483 54.7255 13.537 55.1181 13.537ZM73.1548 3.7615C73.0851 3.90083 73.0028 3.999 72.9078 4.056C72.8191 4.113 72.7114 4.1415 72.5848 4.1415C72.4581 4.1415 72.3156 4.094 72.1573 3.999C71.9989 3.89767 71.8121 3.78683 71.5968 3.6665C71.3814 3.54617 71.1281 3.4385 70.8368 3.3435C70.5518 3.24217 70.2129 3.1915 69.8203 3.1915C69.4656 3.1915 69.1553 3.23583 68.8893 3.3245C68.6296 3.40683 68.4079 3.524 68.2243 3.676C68.0469 3.828 67.9139 4.01167 67.8253 4.227C67.7366 4.436 67.6923 4.66717 67.6923 4.9205C67.6923 5.2435 67.7809 5.51267 67.9583 5.728C68.1419 5.94333 68.3826 6.127 68.6803 6.279C68.9779 6.431 69.3168 6.56717 69.6968 6.6875C70.0768 6.80783 70.4631 6.93767 70.8558 7.077C71.2548 7.21 71.6443 7.36833 72.0243 7.552C72.4043 7.72933 72.7431 7.95733 73.0408 8.236C73.3384 8.50833 73.5759 8.844 73.7533 9.243C73.9369 9.642 74.0288 10.1265 74.0288 10.6965C74.0288 11.3172 73.9211 11.8998 73.7058 12.4445C73.4968 12.9828 73.1864 13.4547 72.7748 13.86C72.3694 14.259 71.8723 14.5757 71.2833 14.81C70.6943 15.038 70.0198 15.152 69.2598 15.152C68.8228 15.152 68.3921 15.1077 67.9678 15.019C67.5434 14.9367 67.1349 14.8163 66.7423 14.658C66.3559 14.4997 65.9918 14.3097 65.6498 14.088C65.3141 13.8663 65.0133 13.6193 64.7473 13.347L65.4883 12.1215C65.5579 12.0328 65.6403 11.96 65.7353 11.903C65.8366 11.8397 65.9474 11.808 66.0678 11.808C66.2261 11.808 66.3971 11.8745 66.5808 12.0075C66.7644 12.1342 66.9798 12.2767 67.2268 12.435C67.4801 12.5933 67.7746 12.739 68.1103 12.872C68.4523 12.9987 68.8608 13.062 69.3358 13.062C70.0641 13.062 70.6278 12.891 71.0268 12.549C71.4258 12.2007 71.6253 11.7035 71.6253 11.0575C71.6253 10.6965 71.5334 10.402 71.3498 10.174C71.1724 9.946 70.9349 9.756 70.6373 9.604C70.3396 9.44567 70.0008 9.31267 69.6208 9.205C69.2408 9.09733 68.8544 8.98017 68.4618 8.8535C68.0691 8.72683 67.6828 8.57483 67.3028 8.3975C66.9228 8.22017 66.5839 7.989 66.2863 7.704C65.9886 7.419 65.7479 7.06433 65.5643 6.64C65.3869 6.20933 65.2983 5.6805 65.2983 5.0535C65.2983 4.55317 65.3964 4.0655 65.5928 3.5905C65.7954 3.1155 66.0868 2.69433 66.4668 2.327C66.8531 1.95967 67.3249 1.66517 67.8823 1.4435C68.4396 1.22183 69.0761 1.111 69.7918 1.111C70.6024 1.111 71.3498 1.23767 72.0338 1.491C72.7178 1.74433 73.3004 2.099 73.7818 2.555L73.1548 3.7615ZM78.2208 0.882999V8.9675H78.6578C78.8161 8.9675 78.9396 8.94533 79.0283 8.901C79.117 8.85667 79.212 8.77433 79.3133 8.654L81.7358 5.6615C81.8435 5.53483 81.9575 5.43667 82.0778 5.367C82.1981 5.291 82.3565 5.253 82.5528 5.253H84.6998L81.6693 8.8725C81.5616 9.0055 81.4508 9.129 81.3368 9.243C81.2228 9.35067 81.0993 9.44567 80.9663 9.528C81.0993 9.623 81.2165 9.73383 81.3178 9.8605C81.4191 9.98717 81.5205 10.1233 81.6218 10.269L84.8708 15H82.7523C82.5686 15 82.4135 14.9683 82.2868 14.905C82.1601 14.8417 82.0461 14.734 81.9448 14.582L79.4653 10.8865C79.3703 10.7408 79.2753 10.6458 79.1803 10.6015C79.0853 10.5572 78.9428 10.535 78.7528 10.535H78.2208V15H75.8743V0.882999H78.2208ZM88.8277 5.253V15H86.4812V5.253H88.8277ZM89.1792 2.4125C89.1792 2.61517 89.138 2.80517 89.0557 2.9825C88.9734 3.15983 88.8625 3.315 88.7232 3.448C88.5902 3.581 88.4319 3.68867 88.2482 3.771C88.0645 3.847 87.8682 3.885 87.6592 3.885C87.4565 3.885 87.2634 3.847 87.0797 3.771C86.9024 3.68867 86.7472 3.581 86.6142 3.448C86.4812 3.315 86.3735 3.15983 86.2912 2.9825C86.2152 2.80517 86.1772 2.61517 86.1772 2.4125C86.1772 2.2035 86.2152 2.00717 86.2912 1.8235C86.3735 1.63983 86.4812 1.4815 86.6142 1.3485C86.7472 1.2155 86.9024 1.111 87.0797 1.035C87.2634 0.952666 87.4565 0.9115 87.6592 0.9115C87.8682 0.9115 88.0645 0.952666 88.2482 1.035C88.4319 1.111 88.5902 1.2155 88.7232 1.3485C88.8625 1.4815 88.9734 1.63983 89.0557 1.8235C89.138 2.00717 89.1792 2.2035 89.1792 2.4125ZM93.9859 0.882999V15H91.6394V0.882999H93.9859ZM99.1441 0.882999V15H96.7976V0.882999H99.1441ZM101.69 13.556C101.69 13.3787 101.721 13.214 101.785 13.062C101.854 12.9037 101.949 12.7675 102.07 12.6535C102.19 12.5332 102.336 12.4413 102.507 12.378C102.678 12.3083 102.865 12.2735 103.067 12.2735C103.308 12.2735 103.517 12.3178 103.694 12.4065C103.872 12.4888 104.02 12.606 104.141 12.758C104.261 12.9037 104.35 13.0747 104.407 13.271C104.464 13.461 104.492 13.6637 104.492 13.879C104.492 14.183 104.445 14.5028 104.35 14.8385C104.261 15.1742 104.128 15.5098 103.951 15.8455C103.773 16.1812 103.555 16.5073 103.295 16.824C103.036 17.1407 102.738 17.432 102.402 17.698L101.994 17.3275C101.88 17.2325 101.823 17.1153 101.823 16.976C101.823 16.9253 101.839 16.8683 101.87 16.805C101.908 16.7417 101.953 16.6847 102.003 16.634C102.073 16.558 102.158 16.463 102.26 16.349C102.361 16.2413 102.462 16.1147 102.564 15.969C102.665 15.8297 102.757 15.6745 102.839 15.5035C102.928 15.3388 102.991 15.1615 103.029 14.9715C102.833 14.9715 102.652 14.9367 102.488 14.867C102.323 14.791 102.181 14.6897 102.06 14.563C101.946 14.4363 101.854 14.2875 101.785 14.1165C101.721 13.9455 101.69 13.7587 101.69 13.556ZM101.623 6.9345C101.623 6.73817 101.658 6.55133 101.728 6.374C101.804 6.19667 101.905 6.04467 102.032 5.918C102.165 5.79133 102.32 5.69 102.497 5.614C102.675 5.538 102.865 5.5 103.067 5.5C103.264 5.5 103.45 5.538 103.628 5.614C103.805 5.69 103.957 5.79133 104.084 5.918C104.21 6.04467 104.312 6.19667 104.388 6.374C104.464 6.55133 104.502 6.73817 104.502 6.9345C104.502 7.13717 104.464 7.32717 104.388 7.5045C104.312 7.6755 104.21 7.82433 104.084 7.951C103.957 8.07767 103.805 8.179 103.628 8.255C103.45 8.32467 103.264 8.3595 103.067 8.3595C102.865 8.3595 102.675 8.32467 102.497 8.255C102.32 8.179 102.165 8.07767 102.032 7.951C101.905 7.82433 101.804 7.6755 101.728 7.5045C101.658 7.32717 101.623 7.13717 101.623 6.9345ZM113.707 15.152C112.865 15.152 112.216 14.9145 111.76 14.4395C111.304 13.9582 111.076 13.2963 111.076 12.454V7.0105H110.088C109.961 7.0105 109.85 6.96933 109.755 6.887C109.667 6.80467 109.622 6.68117 109.622 6.5165V5.5855L111.19 5.329L111.684 2.669C111.709 2.54233 111.766 2.44417 111.855 2.3745C111.95 2.30483 112.067 2.27 112.206 2.27H113.422V5.3385H115.987V7.0105H113.422V12.2925C113.422 12.5965 113.498 12.834 113.65 13.005C113.802 13.176 114.005 13.2615 114.258 13.2615C114.404 13.2615 114.524 13.2457 114.619 13.214C114.721 13.176 114.806 13.138 114.876 13.1C114.952 13.062 115.018 13.0272 115.075 12.9955C115.132 12.9575 115.189 12.9385 115.246 12.9385C115.316 12.9385 115.373 12.9575 115.417 12.9955C115.462 13.0272 115.509 13.0778 115.56 13.1475L116.263 14.2875C115.921 14.5725 115.528 14.7878 115.085 14.9335C114.642 15.0792 114.182 15.152 113.707 15.152ZM117.854 15V0.882999H120.2V6.3075C120.58 5.9465 120.998 5.65517 121.454 5.4335C121.91 5.21183 122.445 5.101 123.06 5.101C123.592 5.101 124.063 5.19283 124.475 5.3765C124.887 5.55383 125.229 5.80717 125.501 6.1365C125.78 6.4595 125.989 6.849 126.128 7.305C126.274 7.75467 126.347 8.25183 126.347 8.7965V15H124V8.7965C124 8.20117 123.861 7.742 123.582 7.419C123.31 7.08967 122.898 6.925 122.347 6.925C121.942 6.925 121.562 7.01683 121.207 7.2005C120.852 7.38417 120.517 7.63433 120.2 7.951V15H117.854ZM132.68 5.101C133.295 5.101 133.858 5.19917 134.371 5.3955C134.891 5.59183 135.337 5.88 135.711 6.26C136.085 6.63367 136.376 7.096 136.585 7.647C136.794 8.19167 136.898 8.8155 136.898 9.5185C136.898 9.69583 136.889 9.84467 136.87 9.965C136.857 10.079 136.829 10.1708 136.784 10.2405C136.746 10.3038 136.693 10.3513 136.623 10.383C136.553 10.4083 136.465 10.421 136.357 10.421H130.334C130.404 11.4217 130.673 12.1563 131.141 12.625C131.61 13.0937 132.231 13.328 133.003 13.328C133.383 13.328 133.71 13.2837 133.982 13.195C134.261 13.1063 134.501 13.0082 134.704 12.9005C134.913 12.7928 135.093 12.6947 135.245 12.606C135.404 12.5173 135.556 12.473 135.701 12.473C135.796 12.473 135.879 12.492 135.948 12.53C136.018 12.568 136.078 12.6218 136.129 12.6915L136.813 13.5465C136.553 13.8505 136.262 14.107 135.939 14.316C135.616 14.5187 135.277 14.6833 134.922 14.81C134.574 14.9303 134.216 15.0158 133.849 15.0665C133.488 15.1172 133.136 15.1425 132.794 15.1425C132.117 15.1425 131.487 15.0317 130.904 14.81C130.321 14.582 129.815 14.2495 129.384 13.8125C128.953 13.3692 128.614 12.8245 128.367 12.1785C128.12 11.5262 127.997 10.7725 127.997 9.9175C127.997 9.2525 128.105 8.62867 128.32 8.046C128.535 7.457 128.842 6.94717 129.241 6.5165C129.647 6.0795 130.138 5.73433 130.714 5.481C131.297 5.22767 131.952 5.101 132.68 5.101ZM132.728 6.7825C132.044 6.7825 131.509 6.97567 131.122 7.362C130.736 7.74833 130.489 8.29617 130.381 9.0055H134.789C134.789 8.7015 134.748 8.4165 134.666 8.1505C134.584 7.87817 134.457 7.64067 134.286 7.438C134.115 7.23533 133.9 7.077 133.64 6.963C133.38 6.84267 133.076 6.7825 132.728 6.7825ZM141.336 1.263H143.483C143.704 1.263 143.888 1.31683 144.034 1.4245C144.186 1.52583 144.287 1.66517 144.338 1.8425L146.675 10.06C146.732 10.2627 146.782 10.4843 146.827 10.725C146.877 10.9593 146.925 11.2095 146.969 11.4755C147.02 11.2095 147.074 10.9593 147.131 10.725C147.194 10.4843 147.261 10.2627 147.33 10.06L150.028 1.8425C150.079 1.69683 150.177 1.56383 150.323 1.4435C150.475 1.32317 150.658 1.263 150.874 1.263H151.624C151.846 1.263 152.03 1.31683 152.175 1.4245C152.321 1.52583 152.422 1.66517 152.479 1.8425L155.158 10.06C155.298 10.4653 155.418 10.915 155.519 11.409C155.564 11.162 155.608 10.9245 155.652 10.6965C155.703 10.4685 155.754 10.2563 155.804 10.06L158.141 1.8425C158.186 1.68417 158.284 1.548 158.436 1.434C158.588 1.32 158.771 1.263 158.987 1.263H160.991L156.726 15H154.417L151.415 5.614C151.377 5.49367 151.336 5.36383 151.292 5.2245C151.254 5.08517 151.216 4.93633 151.178 4.778C151.14 4.93633 151.099 5.08517 151.054 5.2245C151.016 5.36383 150.978 5.49367 150.94 5.614L147.91 15H145.601L141.336 1.263ZM166.138 5.101C166.866 5.101 167.525 5.21817 168.114 5.4525C168.709 5.68683 169.216 6.01933 169.634 6.45C170.052 6.88067 170.375 7.40633 170.603 8.027C170.831 8.64767 170.945 9.34117 170.945 10.1075C170.945 10.8802 170.831 11.5768 170.603 12.1975C170.375 12.8182 170.052 13.347 169.634 13.784C169.216 14.221 168.709 14.5567 168.114 14.791C167.525 15.0253 166.866 15.1425 166.138 15.1425C165.409 15.1425 164.747 15.0253 164.152 14.791C163.557 14.5567 163.047 14.221 162.623 13.784C162.205 13.347 161.878 12.8182 161.644 12.1975C161.416 11.5768 161.302 10.8802 161.302 10.1075C161.302 9.34117 161.416 8.64767 161.644 8.027C161.878 7.40633 162.205 6.88067 162.623 6.45C163.047 6.01933 163.557 5.68683 164.152 5.4525C164.747 5.21817 165.409 5.101 166.138 5.101ZM166.138 13.3375C166.948 13.3375 167.547 13.0652 167.933 12.5205C168.326 11.9758 168.522 11.1778 168.522 10.1265C168.522 9.07517 168.326 8.274 167.933 7.723C167.547 7.172 166.948 6.8965 166.138 6.8965C165.314 6.8965 164.706 7.17517 164.314 7.7325C163.921 8.2835 163.725 9.0815 163.725 10.1265C163.725 11.1715 163.921 11.9695 164.314 12.5205C164.706 13.0652 165.314 13.3375 166.138 13.3375ZM172.775 15V5.253H174.153C174.394 5.253 174.561 5.29733 174.656 5.386C174.751 5.47467 174.815 5.62667 174.846 5.842L174.989 7.02C175.337 6.41833 175.746 5.94333 176.214 5.595C176.683 5.24667 177.209 5.0725 177.791 5.0725C178.273 5.0725 178.672 5.18333 178.988 5.405L178.684 7.1625C178.665 7.2765 178.624 7.35883 178.561 7.4095C178.498 7.45383 178.412 7.476 178.304 7.476C178.209 7.476 178.08 7.45383 177.915 7.4095C177.75 7.36517 177.532 7.343 177.259 7.343C176.772 7.343 176.354 7.47917 176.005 7.7515C175.657 8.0175 175.363 8.41017 175.122 8.9295V15H172.775ZM183.03 0.882999V15H180.683V0.882999H183.03ZM192.549 15C192.245 15 192.045 14.8575 191.95 14.5725L191.76 13.632C191.557 13.86 191.345 14.0658 191.124 14.2495C190.902 14.4332 190.661 14.5915 190.402 14.7245C190.148 14.8575 189.873 14.9588 189.575 15.0285C189.284 15.1045 188.967 15.1425 188.625 15.1425C188.093 15.1425 187.605 15.0317 187.162 14.81C186.719 14.5883 186.336 14.2685 186.013 13.8505C185.696 13.4262 185.449 12.9037 185.272 12.283C185.101 11.6623 185.015 10.953 185.015 10.155C185.015 9.433 185.113 8.76167 185.31 8.141C185.506 7.52033 185.788 6.982 186.155 6.526C186.522 6.07 186.963 5.71533 187.476 5.462C187.989 5.20233 188.565 5.0725 189.205 5.0725C189.749 5.0725 190.215 5.16117 190.601 5.3385C190.987 5.5095 191.333 5.74067 191.637 6.032V0.882999H193.983V15H192.549ZM189.423 13.2805C189.911 13.2805 190.326 13.1792 190.668 12.9765C191.01 12.7738 191.333 12.4857 191.637 12.112V7.742C191.371 7.419 191.079 7.191 190.763 7.058C190.452 6.925 190.117 6.8585 189.756 6.8585C189.401 6.8585 189.078 6.925 188.787 7.058C188.502 7.191 188.258 7.39367 188.055 7.666C187.859 7.932 187.707 8.274 187.599 8.692C187.491 9.10367 187.438 9.59133 187.438 10.155C187.438 10.725 187.482 11.2095 187.571 11.6085C187.666 12.0012 187.799 12.3242 187.97 12.5775C188.141 12.8245 188.35 13.005 188.597 13.119C188.844 13.2267 189.119 13.2805 189.423 13.2805ZM202.698 5.253V15H200.351V5.253H202.698ZM203.049 2.4125C203.049 2.61517 203.008 2.80517 202.926 2.9825C202.843 3.15983 202.733 3.315 202.593 3.448C202.46 3.581 202.302 3.68867 202.118 3.771C201.935 3.847 201.738 3.885 201.529 3.885C201.327 3.885 201.133 3.847 200.95 3.771C200.772 3.68867 200.617 3.581 200.484 3.448C200.351 3.315 200.244 3.15983 200.161 2.9825C200.085 2.80517 200.047 2.61517 200.047 2.4125C200.047 2.2035 200.085 2.00717 200.161 1.8235C200.244 1.63983 200.351 1.4815 200.484 1.3485C200.617 1.2155 200.772 1.111 200.95 1.035C201.133 0.952666 201.327 0.9115 201.529 0.9115C201.738 0.9115 201.935 0.952666 202.118 1.035C202.302 1.111 202.46 1.2155 202.593 1.3485C202.733 1.4815 202.843 1.63983 202.926 1.8235C203.008 2.00717 203.049 2.2035 203.049 2.4125ZM211.143 7.153C211.08 7.25433 211.013 7.32717 210.944 7.3715C210.874 7.4095 210.785 7.4285 210.678 7.4285C210.564 7.4285 210.44 7.39683 210.307 7.3335C210.18 7.27017 210.032 7.2005 209.861 7.1245C209.69 7.04217 209.493 6.96933 209.272 6.906C209.056 6.84267 208.8 6.811 208.502 6.811C208.04 6.811 207.676 6.90917 207.41 7.1055C207.144 7.30183 207.011 7.55833 207.011 7.875C207.011 8.084 207.077 8.26133 207.21 8.407C207.349 8.54633 207.53 8.66983 207.752 8.7775C207.98 8.88517 208.236 8.98333 208.521 9.072C208.806 9.15433 209.097 9.24617 209.395 9.3475C209.693 9.44883 209.984 9.566 210.269 9.699C210.554 9.82567 210.807 9.99033 211.029 10.193C211.257 10.3893 211.438 10.6268 211.571 10.9055C211.71 11.1842 211.78 11.5198 211.78 11.9125C211.78 12.3812 211.694 12.815 211.523 13.214C211.352 13.6067 211.102 13.9487 210.773 14.24C210.443 14.525 210.035 14.7498 209.547 14.9145C209.066 15.0728 208.512 15.152 207.885 15.152C207.549 15.152 207.22 15.1203 206.897 15.057C206.58 15 206.273 14.9177 205.975 14.81C205.684 14.7023 205.411 14.5757 205.158 14.43C204.911 14.2843 204.693 14.126 204.503 13.955L205.044 13.062C205.114 12.9543 205.196 12.872 205.291 12.815C205.386 12.758 205.506 12.7295 205.652 12.7295C205.798 12.7295 205.934 12.7707 206.061 12.853C206.194 12.9353 206.346 13.024 206.517 13.119C206.688 13.214 206.887 13.3027 207.115 13.385C207.349 13.4673 207.644 13.5085 207.999 13.5085C208.277 13.5085 208.515 13.4768 208.711 13.4135C208.914 13.3438 209.078 13.2552 209.205 13.1475C209.338 13.0398 209.433 12.9163 209.49 12.777C209.553 12.6313 209.585 12.4825 209.585 12.3305C209.585 12.1025 209.515 11.9157 209.376 11.77C209.243 11.6243 209.063 11.4977 208.835 11.39C208.613 11.2823 208.356 11.1873 208.065 11.105C207.78 11.0163 207.486 10.9213 207.182 10.82C206.884 10.7187 206.589 10.6015 206.298 10.4685C206.013 10.3292 205.757 10.155 205.529 9.946C205.307 9.737 205.126 9.4805 204.987 9.1765C204.854 8.8725 204.788 8.50517 204.788 8.0745C204.788 7.6755 204.867 7.2955 205.025 6.9345C205.183 6.5735 205.415 6.26 205.719 5.994C206.029 5.72167 206.412 5.50633 206.868 5.348C207.33 5.18333 207.862 5.101 208.464 5.101C209.135 5.101 209.747 5.21183 210.298 5.4335C210.849 5.65517 211.308 5.9465 211.675 6.3075L211.143 7.153ZM223.567 9.661V15H221.011V9.661L216.005 1.263H218.256C218.478 1.263 218.652 1.31683 218.779 1.4245C218.912 1.53217 219.023 1.66833 219.111 1.833L221.629 6.4215C221.774 6.69383 221.901 6.9535 222.009 7.2005C222.116 7.44117 222.215 7.67867 222.303 7.913C222.386 7.67233 222.477 7.43167 222.579 7.191C222.686 6.944 222.813 6.6875 222.959 6.4215L225.457 1.833C225.527 1.69367 225.631 1.56383 225.771 1.4435C225.91 1.32317 226.087 1.263 226.303 1.263H228.564L223.567 9.661ZM232.396 5.101C233.125 5.101 233.783 5.21817 234.372 5.4525C234.968 5.68683 235.474 6.01933 235.892 6.45C236.31 6.88067 236.633 7.40633 236.861 8.027C237.089 8.64767 237.203 9.34117 237.203 10.1075C237.203 10.8802 237.089 11.5768 236.861 12.1975C236.633 12.8182 236.31 13.347 235.892 13.784C235.474 14.221 234.968 14.5567 234.372 14.791C233.783 15.0253 233.125 15.1425 232.396 15.1425C231.668 15.1425 231.006 15.0253 230.411 14.791C229.816 14.5567 229.306 14.221 228.881 13.784C228.463 13.347 228.137 12.8182 227.903 12.1975C227.675 11.5768 227.561 10.8802 227.561 10.1075C227.561 9.34117 227.675 8.64767 227.903 8.027C228.137 7.40633 228.463 6.88067 228.881 6.45C229.306 6.01933 229.816 5.68683 230.411 5.4525C231.006 5.21817 231.668 5.101 232.396 5.101ZM232.396 13.3375C233.207 13.3375 233.806 13.0652 234.192 12.5205C234.585 11.9758 234.781 11.1778 234.781 10.1265C234.781 9.07517 234.585 8.274 234.192 7.723C233.806 7.172 233.207 6.8965 232.396 6.8965C231.573 6.8965 230.965 7.17517 230.572 7.7325C230.18 8.2835 229.983 9.0815 229.983 10.1265C229.983 11.1715 230.18 11.9695 230.572 12.5205C230.965 13.0652 231.573 13.3375 232.396 13.3375ZM241.181 5.253V11.447C241.181 12.0423 241.317 12.5047 241.59 12.834C241.868 13.157 242.283 13.3185 242.834 13.3185C243.24 13.3185 243.62 13.2298 243.974 13.0525C244.329 12.8688 244.665 12.6187 244.981 12.302V5.253H247.328V15H245.893C245.589 15 245.39 14.8575 245.295 14.5725L245.133 13.7935C244.931 13.9962 244.722 14.183 244.506 14.354C244.291 14.5187 244.06 14.6612 243.813 14.7815C243.572 14.8955 243.309 14.9842 243.024 15.0475C242.746 15.1172 242.445 15.152 242.122 15.152C241.59 15.152 241.118 15.0633 240.706 14.886C240.301 14.7023 239.959 14.4458 239.68 14.1165C239.402 13.7872 239.189 13.3977 239.044 12.948C238.904 12.492 238.835 11.9917 238.835 11.447V5.253H241.181ZM249.833 15V5.253H251.211C251.451 5.253 251.619 5.29733 251.714 5.386C251.809 5.47467 251.872 5.62667 251.904 5.842L252.047 7.02C252.395 6.41833 252.803 5.94333 253.272 5.595C253.741 5.24667 254.266 5.0725 254.849 5.0725C255.33 5.0725 255.729 5.18333 256.046 5.405L255.742 7.1625C255.723 7.2765 255.682 7.35883 255.619 7.4095C255.555 7.45383 255.47 7.476 255.362 7.476C255.267 7.476 255.137 7.45383 254.973 7.4095C254.808 7.36517 254.589 7.343 254.317 7.343C253.829 7.343 253.411 7.47917 253.063 7.7515C252.715 8.0175 252.42 8.41017 252.18 8.9295V15H249.833ZM263.374 7.153C263.311 7.25433 263.245 7.32717 263.175 7.3715C263.105 7.4095 263.017 7.4285 262.909 7.4285C262.795 7.4285 262.671 7.39683 262.538 7.3335C262.412 7.27017 262.263 7.2005 262.092 7.1245C261.921 7.04217 261.725 6.96933 261.503 6.906C261.288 6.84267 261.031 6.811 260.733 6.811C260.271 6.811 259.907 6.90917 259.641 7.1055C259.375 7.30183 259.242 7.55833 259.242 7.875C259.242 8.084 259.308 8.26133 259.441 8.407C259.581 8.54633 259.761 8.66983 259.983 8.7775C260.211 8.88517 260.467 8.98333 260.752 9.072C261.037 9.15433 261.329 9.24617 261.626 9.3475C261.924 9.44883 262.215 9.566 262.5 9.699C262.785 9.82567 263.039 9.99033 263.26 10.193C263.488 10.3893 263.669 10.6268 263.802 10.9055C263.941 11.1842 264.011 11.5198 264.011 11.9125C264.011 12.3812 263.925 12.815 263.754 13.214C263.583 13.6067 263.333 13.9487 263.004 14.24C262.675 14.525 262.266 14.7498 261.778 14.9145C261.297 15.0728 260.743 15.152 260.116 15.152C259.78 15.152 259.451 15.1203 259.128 15.057C258.811 15 258.504 14.9177 258.206 14.81C257.915 14.7023 257.643 14.5757 257.389 14.43C257.142 14.2843 256.924 14.126 256.734 13.955L257.275 13.062C257.345 12.9543 257.427 12.872 257.522 12.815C257.617 12.758 257.738 12.7295 257.883 12.7295C258.029 12.7295 258.165 12.7707 258.292 12.853C258.425 12.9353 258.577 13.024 258.748 13.119C258.919 13.214 259.118 13.3027 259.346 13.385C259.581 13.4673 259.875 13.5085 260.23 13.5085C260.509 13.5085 260.746 13.4768 260.942 13.4135C261.145 13.3438 261.31 13.2552 261.436 13.1475C261.569 13.0398 261.664 12.9163 261.721 12.777C261.785 12.6313 261.816 12.4825 261.816 12.3305C261.816 12.1025 261.747 11.9157 261.607 11.77C261.474 11.6243 261.294 11.4977 261.066 11.39C260.844 11.2823 260.588 11.1873 260.296 11.105C260.011 11.0163 259.717 10.9213 259.413 10.82C259.115 10.7187 258.821 10.6015 258.529 10.4685C258.244 10.3292 257.988 10.155 257.76 9.946C257.538 9.737 257.358 9.4805 257.218 9.1765C257.085 8.8725 257.019 8.50517 257.019 8.0745C257.019 7.6755 257.098 7.2955 257.256 6.9345C257.415 6.5735 257.646 6.26 257.95 5.994C258.26 5.72167 258.643 5.50633 259.099 5.348C259.562 5.18333 260.094 5.101 260.695 5.101C261.367 5.101 261.978 5.21183 262.529 5.4335C263.08 5.65517 263.539 5.9465 263.906 6.3075L263.374 7.153Z" fill="#828282"/>
</svg>
