<svg width="16" height="16" viewBox="0 0 16 16" fill="none" xmlns="http://www.w3.org/2000/svg">
<path d="M16 8.0347C16 3.58316 12.4418 0 8.02152 0H7.97848C3.55891 0 0 3.58316 0 8.0347C0 12.0454 2.89001 15.3517 6.6958 15.9661L6.69957 10.2171L4.71703 10.2163L4.71627 7.84541L6.69957 7.84383L6.68447 5.66696C7.03327 3.52401 8.32275 3.19196 11.3909 3.18722H11.3917L11.397 5.33254L9.77077 5.32702C9.77077 5.32702 9.13736 5.49423 9.11773 5.91856C9.0981 6.3429 9.08753 7.8391 9.08753 7.8391L11.363 7.82806L11.0467 10.2147L9.07092 10.2313L9.07469 16C12.9937 15.4842 16 12.1258 16 8.0347Z" fill="white"/>
</svg>
